<?xml version="1.0" standalone="no"?>
<!DOCTYPE svg PUBLIC "-//W3C//DTD SVG 20010904//EN"
 "http://www.w3.org/TR/2001/REC-SVG-20010904/DTD/svg10.dtd">
<svg version="1.0" xmlns="http://www.w3.org/2000/svg"
 width="848.000000pt" height="282.000000pt" viewBox="0 0 848.000000 282.000000"
 preserveAspectRatio="xMidYMid meet">
<metadata>
Created by potrace 1.15, written by Peter Selinger 2001-2017
</metadata>
<g transform="translate(0.000000,282.000000) scale(0.100000,-0.100000)"
fill="#000000ad" stroke="none">
<path d="M0 1410 l0 -1410 4240 0 4240 0 0 1410 0 1410 -4240 0 -4240 0 0
-1410z m1396 107 c94 -164 175 -299 179 -300 4 -1 85 133 180 298 151 261 177
300 199 303 l26 3 0 -400 0 -401 -30 0 -30 0 -2 335 -3 336 -160 -278 c-120
-207 -165 -278 -179 -278 -14 0 -60 71 -180 278 l-161 278 -3 -336 -2 -335
-30 0 -30 0 0 401 0 400 27 -3 c24 -3 46 -36 199 -301z m1379 264 c87 -43 148
-104 188 -189 30 -62 32 -75 32 -172 0 -97 -2 -110 -31 -170 -39 -83 -111
-155 -194 -194 -61 -29 -72 -31 -180 -31 -110 0 -118 1 -182 33 -86 42 -153
109 -192 192 -29 60 -31 73 -31 171 0 101 1 108 38 181 74 151 197 220 383
215 91 -2 106 -5 169 -36z m493 -318 c86 -194 159 -353 162 -353 3 0 74 156
159 348 84 191 157 351 161 355 4 5 19 7 33 5 26 -3 25 -6 -151 -401 -177
-398 -177 -398 -205 -395 -28 3 -36 17 -198 383 -93 209 -172 388 -175 398 -5
16 -1 18 26 15 31 -3 33 -6 188 -355z m732 -43 l0 -400 -30 0 -30 0 0 400 0
400 30 0 30 0 0 -400z m780 370 l0 -30 -255 0 -255 0 0 30 0 30 255 0 255 0 0
-30z m714 -356 c98 -212 180 -393 183 -401 4 -11 -2 -14 -27 -11 -32 3 -32 3
-194 360 -88 197 -164 358 -167 358 -3 0 -79 -162 -168 -360 -160 -353 -164
-360 -192 -360 -16 0 -29 3 -29 6 0 3 73 164 161 357 89 194 170 371 181 395
16 35 24 42 47 42 28 0 33 -11 205 -386z m768 357 c135 -52 197 -183 154 -325
-22 -72 -60 -114 -135 -149 -64 -31 -71 -32 -233 -35 l-168 -4 0 -129 0 -129
-25 0 -25 0 0 160 0 160 188 0 c177 0 190 2 239 24 77 36 108 88 108 180 0 92
-24 140 -90 181 l-48 30 -199 3 -198 4 0 30 0 30 188 -4 c162 -4 195 -8 244
-27z m800 0 c200 -78 225 -363 41 -464 -65 -34 -143 -47 -295 -47 l-128 0 0
-130 0 -130 -30 0 -31 0 3 158 3 157 200 5 c190 5 202 6 243 30 65 37 96 96
96 179 0 72 -15 110 -61 153 -49 47 -76 52 -283 58 l-195 5 -3 29 -4 28 194
-4 c168 -4 200 -8 250 -27z m-2282 -366 l0 -25 -255 0 -255 0 0 25 0 25 255 0
255 0 0 -25z m0 -375 l0 -30 -255 0 -255 0 0 30 0 30 255 0 255 0 0 -30z"/>
<path d="M2486 1755 c-57 -16 -143 -72 -173 -113 -58 -78 -68 -112 -68 -222 0
-89 3 -112 23 -151 36 -74 87 -125 160 -161 61 -30 74 -33 162 -33 85 0 101 3
154 29 116 57 185 158 194 286 2 38 -1 91 -8 119 -24 101 -116 204 -213 238
-59 21 -172 25 -231 8z"/>
</g>
</svg>
